<?xml version="1.0" encoding="UTF-8" standalone="no"?>
<!-- Created with Inkscape (http://www.inkscape.org/) -->
<svg width="68.791664mm" height="68.791664mm" version="1.1" viewBox="0 0 68.791664 68.791664" xml:space="preserve" id="svg30" sodipodi:docname="gid-logo.svg" inkscape:version="1.2.2 (b0a8486541, 2022-12-01)" xmlns:inkscape="http://www.inkscape.org/namespaces/inkscape" xmlns:sodipodi="http://sodipodi.sourceforge.net/DTD/sodipodi-0.dtd" xmlns="http://www.w3.org/2000/svg" xmlns:svg="http://www.w3.org/2000/svg"><defs id="defs34"/><sodipodi:namedview id="namedview32" pagecolor="#ffffff" bordercolor="#666666" borderopacity="1.0" inkscape:showpageshadow="2" inkscape:pageopacity="0.0" inkscape:pagecheckerboard="0" inkscape:deskcolor="#d1d1d1" inkscape:document-units="mm" showgrid="false" inkscape:zoom="1" inkscape:cx="238.5" inkscape:cy="198" inkscape:window-width="1920" inkscape:window-height="1131" inkscape:window-x="0" inkscape:window-y="32" inkscape:window-maximized="1" inkscape:current-layer="svg30"/><g transform="matrix(0.54166667,0,0,0.54166667,75.659996,50.422666)" stroke-linecap="square" stroke-width="0.244228" id="g22"><rect x="-139.67999" y="-93.087997" width="127" height="127" fill="#ffffff" stop-color="#000000" id="rect2" style="stroke-width:0.390764"/><g id="g12" style="stroke-width:0.244228"><path d="m -127.26,-68.979 37.451,28.088 0.0045,19.372 -35.191,10.437 z" fill="#e40000" stop-color="#000000" id="path4" style="stroke-width:0.390764"/><path d="m -89.811,-19.952 -0.002,43.191 -35.175,-32.806 z" fill="#e40000" stop-color="#000000" id="path6" style="stroke-width:0.390764"/><path d="m -125.74,-71.098 56.705,-15.579 -0.01087,37.787 -19.189,5.9114 z" fill="#729fcf" stop-color="#000000" id="path8" style="stroke-width:0.390764"/><path d="m -67.503,-86.44 40.979,24.432 -40.948,12.63 z" fill="#729fcf" stop-color="#000000" id="path10" style="stroke-width:0.390764"/></g><g fill="#7fe719" id="g20" style="stroke-width:0.390764"><path d="m -24.728,-59.805 -4.7116,58.976 -38.046,-26.725 -0.0049,-19.1 z" stop-color="#000000" id="path14" style="stroke-width:0.625223"/><path d="m -69.02,-46.188 -0.01332,18.544 -18.202,5.3998 0.01696,-18.32 z" stop-color="#000000" id="path16" style="stroke-width:0.625223"/><path d="m -87.245,-20.67 18.891,-5.6244 38.188,26.79 -57.079,23.795 z" stop-color="#000000" id="path18" style="stroke-width:0.625223"/></g></g><g stroke-width="0.298394" id="g28" transform="matrix(0.54166667,0,0,0.54166667,-3.7449144e-6,-8.8672001e-7)"><path transform="matrix(0.25918,0,0,0.25918,36.204,24.127)" d="m 56.912,39.574 c -17.812,0 -32.496,14.543 -32.496,32.275 0,11.553 6.1047,21.714 15.18,27.482 l -10.318,0.30664 c -1.5211,-3.3182 -3.6623,-6.3282 -6.3633,-8.6914 -5.5816,-4.8837 -12.869,-7.1172 -20.264,-7.1172 -11.83,0 -22.424,5.8716 -31.822,15.23 -8.1586,-2.7216 -17.035,-4.1113 -26.443,-4.1113 -17.459,0 -33.154,4.4933 -45.127,13.178 -11.973,8.6845 -20.062,22.311 -20.062,37.555 0,10.804 4.1071,20.612 10.896,28.467 -0.45587,0.34941 -0.96439,0.6157 -1.4062,0.98828 -6.8162,5.7474 -10.824,14.902 -10.824,23.697 0,6.736 2.4709,13.366 6.5195,18.684 -5.9334,5.4368 -9.8555,13.499 -9.8555,21.791 0,6.2364 2.2158,12.756 6.2266,17.65 4.0107,4.8947 9.3224,8.1837 15.203,10.543 11.761,4.7186 26.477,6.3047 45.539,6.3047 22.025,0 40.104,-3.2383 54.059,-11.207 13.081,-7.47 21.866,-20.641 22.928,-35.449 a 12.707,12.707 0 0 0 4.1855,1.7344 h 69.605 a 12.707,12.707 0 0 0 9.6016,-5.2109 c 3.384,3.8656 9.2516,6.6445 14.496,6.6445 a 12.707,12.707 0 0 0 0.0508,0 l 49.822,-0.19922 c 13.559,-0.0243 22.625,-0.21877 29.582,-0.98633 0.0403,-5e-5 0.0396,0.001 0.13672,0 a 12.707,12.707 0 0 0 1.3281,-0.0996 12.707,12.707 0 0 0 0.28906,-0.0215 c 6.317,-0.87746 12.782,-2.4627 19.578,-4.666 12.213,-3.8272 23.347,-9.5868 32.961,-17.361 9.4377,-7.5625 16.949,-16.713 22.205,-27.004 a 12.707,12.707 0 0 0 0.002,0 c 1.8691,-3.6598 3.3603,-7.4458 4.5879,-11.299 10.237,-1.5269 20.031,-5.871 27.582,-12.793 9.459,-8.6708 15.221,-21.209 15.221,-33.934 -1.6e-4,-5.0617 -1.1363,-10.022 -2.8301,-14.793 10.756,-2.2155 20.291,-11.898 20.293,-23.383 v -0.002 c 3.7e-4,-13.101 -12.405,-23.867 -24.879,-23.869 -10.605,-0.0017 -21.088,7.8056 -24.016,18.188 -6.0911,-2.3372 -12.627,-3.5861 -19.174,-3.5859 a 12.707,12.707 0 0 0 -0.008,0 c -8.9909,0.0056 -17.931,2.4127 -25.744,6.7344 -4.7772,-3.1376 -9.8685,-5.8993 -15.301,-8.1777 -16.08,-6.8129 -35.525,-9.4653 -58.711,-9.4258 h -0.0234 l -53.828,0.08008 a 12.707,12.707 0 0 0 -0.0527,0 c 0.87851,-0.0049 0.13256,-0.18775 -2.168,0.09766 -8.4437,1.0478 -15.823,8.1496 -15.855,17.547 a 12.707,12.707 0 0 0 0,0.05859 l 0.14458,112.9 a 12.707,12.707 0 0 0 -5.291,-2.1914 h -1.1543 c -1.6739,-0.0277 -2.327,-0.19016 -3.4863,-0.32031 v -80.822 a 12.707,12.707 0 0 0 -12.582,-12.578 c 8.4796,-5.9189 14.139,-15.665 14.139,-26.562 0,-17.733 -14.542,-32.275 -32.275,-32.275 z m 110.12,76.309 a 12.707,12.707 0 0 0 0.004,0 c 10.578,-0.0186 18.185,0.38093 21.186,0.79297 3.2889,0.45181 7.2365,1.4641 11.592,3.1465 a 12.707,12.707 0 0 0 0.0547,0.0215 c 4.1632,1.5863 7.4411,3.3937 10.094,5.4492 8.1993,6.376 10.561,11.098 10.578,20.633 0.0177,9.9918 -2.528,15.478 -10.426,22.094 -2.2879,1.8832 -4.8434,3.5018 -7.7832,4.8926 -2.3433,1.0875 -6.2363,2.3568 -11.576,3.4824 -4.1675,0.82849 -12.272,1.5297 -22.977,1.5488 l -11.168,0.0156 -0.0801,-62.061 z m -220.9,15.906 c 3.166,10.381 2.4926,7.5122 2.4473,13.227 -0.61569,3.7893 -11.234,11.182 -5.3379,12.307 -0.03463,-0.0802 -0.01558,-0.0477 -0.12695,-0.30079 a 12.707,12.707 0 0 0 -0.26367,-0.56445 c -1.1382,-2.2765 -2.2187,-6.9829 -2.2188,-12.775 0,-6.74 1.4275,-10.286 1.9863,-11.078 0.55882,-0.79205 -0.24763,-0.67969 2.4336,-0.67969 0.904,0 1.0588,-0.14045 1.0801,-0.13477 z m 71.58,2.7539 c 2.2633,2.5356 10.648,2.121 7.8945,2.0508 0.71418,0.0122 0.61627,0.0406 1.209,0.0644 0.23212,1.9689 0.49024,4.5099 0.49024,8.1348 v 47.125 c -1.3307,0.081 -1.7886,0.21484 -3.752,0.21484 h -0.88867 a 12.707,12.707 0 0 0 -11.102,8.832 c -4.7829,-7.057 -11.731,-12.538 -20.232,-15.131 -1.4979,-0.49297 -3.1002,-0.84236 -4.6777,-1.2246 14.224,-8.3255 23.363,-23.361 23.363,-40.039 0,-2.3962 -0.29002,-4.7462 -0.71094,-7.0684 3.0063,-0.48649 5.8156,-1.5109 8.4063,-2.959 z m -35.42,52.422 c -0.08073,0.0371 -0.16536,0.0697 -0.12695,0.0488 0.0413,-0.0194 0.08568,-0.0293 0.12695,-0.0488 z" id="path24" style="stroke-width:0.298394"/><path d="m 50.955,37.677 c -2.8243,0 -5.1299,2.3055 -5.1299,5.0722 0,2.8243 2.3057,5.1299 5.0147,5.1299 2.9396,0 5.1875,-2.248 5.1875,-5.1299 0,-2.7667 -2.3056,-5.0722 -5.0723,-5.0722 z m 66.191,5.2703 a 3.1562,2.8932 0 0 0 -3.1564,2.8933 3.1562,2.8932 0 0 0 3.1564,2.8933 3.1562,2.8932 0 0 0 3.1561,-2.8933 3.1562,2.8932 0 0 0 -3.1561,-2.8933 z m -37.051,0.96729 -13.952,0.02076 c -0.05998,3.38e-4 -0.11683,-0.0072 -0.17479,0 -0.68394,0.08456 -1.2199,0.63069 -1.2222,1.2914 l 0.04313,33.737 c 0,0.51094 0.13831,1.5648 1.5756,1.5648 l 12.92,-0.05158 c 3.6932,-0.0064 6.1669,-0.0697 7.64,-0.25595 0.0086,5e-5 0.02636,8.6e-5 0.03496,0 1.4098,-0.19583 2.9032,-0.55686 4.5269,-1.0841 2.8227,-0.88257 5.3259,-2.1865 7.4781,-3.9281 2.1072,-1.6872 3.7402,-3.685 4.8879,-5.9322 0.74993,-1.4684 1.2552,-2.9921 1.5152,-4.5589 a 9.823,9.0044 0 0 0 0.58464,0.02211 9.823,9.0044 0 0 0 9.8229,-9.0042 9.823,9.0044 0 0 0 -9.8229,-9.0043 9.823,9.0044 0 0 0 -6.7471,2.4658 c -1.5134,-1.2527 -3.2429,-2.2904 -5.1734,-3.0993 -3.5541,-1.5068 -8.188,-2.1937 -13.937,-2.1834 z m -43.204,5.2326 c -2.6514,0 -4.8418,1.3833 -7.3779,4.5535 -2.1903,-1.0951 -4.784,-1.6715 -7.7236,-1.6715 -7.8966,0 -13.603,4.15 -13.603,9.8563 0,3.9195 2.1903,6.6862 6.3403,8.1272 -4.5535,0.86459 -6.6861,2.6514 -6.6861,5.6487 0,2.5361 1.8444,4.4383 5.2451,5.3606 -3.8618,0.5764 -6.1098,2.4209 -6.1098,5.1299 0,3.8042 4.6112,5.6487 14.064,5.6487 10.721,0 16.715,-3.4008 16.715,-9.5682 0,-3.2278 -1.9021,-5.9369 -4.7841,-6.8014 -1.9021,-0.63403 -4.4383,-0.86456 -8.5883,-0.86456 h -3.9771 c -3.0549,0 -3.7465,-0.28819 -3.7465,-1.6715 0,-1.441 1.0375,-1.9022 4.3805,-1.9022 h 1.0375 c 3.8042,0 5.9369,-0.34579 8.1272,-1.3833 3.3431,-1.4986 5.3028,-4.4382 5.3028,-8.0118 0,-2.709 -0.92226,-4.4383 -3.4584,-6.5134 0.74931,-1.0951 1.441,-1.6138 2.1327,-1.6138 0.17292,0 0.28823,0.05768 0.28823,0.28823 v 0.2305 c 0,1.3257 1.4987,2.5938 3.1126,2.5938 2.0174,0 3.5736,-1.614 3.5736,-3.689 0,-2.2479 -1.7291,-3.7465 -4.2652,-3.7465 z m 42.601,1.7215 c 2.8108,-0.005 4.8105,0.08049 5.9448,0.23626 1.1499,0.15796 2.4095,0.4911 3.7431,1.0063 1.3218,0.50364 2.4738,1.1206 3.4639,1.8884 2.724,2.1178 4.0082,4.6243 4.0141,7.9429 0.0057,3.398 -1.2351,6.0448 -3.8885,8.2646 -0.81623,0.67371 -1.7238,1.2451 -2.7252,1.7179 -0.94647,0.44079 -2.1811,0.82066 -3.7401,1.148 -1.4703,0.29411 -3.7023,0.46157 -6.6082,0.46677 l -6.1892,0.0091 -0.0292,-22.671 z m -23.868,2.025 -13.545,0.40355 v 2.9395 h 0.80697 c 3.516,0.05764 3.6889,0.28825 3.6889,5.4181 v 13.315 c -0.05764,0.80695 -0.11527,1.1528 -0.34582,1.4986 -0.34584,0.51875 -1.4987,0.74937 -3.9195,0.74937 h -0.23051 v 2.9395 h 18.041 v -2.9395 h -0.34582 c -3.6313,-0.05762 -4.15,-0.40349 -4.15,-2.4785 v -2.882 z m -33.661,2.1327 c 2.7667,0 4.2076,2.3055 4.2076,6.6861 0,4.15 -1.5563,6.5134 -4.2654,6.5134 -1.7292,0 -2.8242,-0.6341 -3.4582,-2.0751 -0.63403,-1.2681 -0.92229,-2.9396 -0.92229,-4.7841 0,-4.2653 1.4987,-6.3403 4.4383,-6.3403 z m -5.3606,27.609 h 7.5508 c 3.5736,0 4.2652,0.11534 5.2451,0.74937 0.51875,0.34583 0.8647,1.0951 0.8647,1.902 0,2.3632 -2.882,3.5161 -8.8188,3.5161 -4.4382,0 -6.9744,-1.2105 -6.9744,-3.3432 0,-1.2681 0.69156,-2.1903 2.1325,-2.8243 z" fill="#ffffff" id="path26" style="stroke-width:0.47743"/></g></svg>